<?xml version="1.0" encoding="utf-8"?>
<!-- Generator: Adobe Illustrator 22.1.0, SVG Export Plug-In . SVG Version: 6.00 Build 0)  -->
<svg version="1.1" id="Calque_1" xmlns="http://www.w3.org/2000/svg" xmlns:xlink="http://www.w3.org/1999/xlink" x="0px" y="0px"
	 viewBox="0 0 64 80" style="enable-background:new 0 0 64 80;" xml:space="preserve">
<style type="text/css">
	.st0{fill:#FF3717;}
</style>
<g>
	<path class="st0" d="M17,65h6v4c0,0.6,0.4,1,1,1h4c0.6,0,1-0.4,1-1v-4h6c0.5,0,0.9-0.4,1-0.8l8-48c0.1-0.5-0.3-1.1-0.8-1.2
		c-0.1,0-0.1,0-0.2,0H29v-4c0-0.6-0.4-1-1-1h-4c-0.6,0-1,0.4-1,1v4H9c-0.6,0-1,0.4-1,1c0,0.1,0,0.1,0,0.2l8,48
		C16.1,64.6,16.5,65,17,65z M27,68h-2v-3h2V68z M25,12h2v3h-2V12z M15.2,47H18v-2h-3.2l-0.7-4H23v-2h-9.2l-0.7-4H20v-2h-7.2l-0.7-4
		H16v-2h-4.2l-0.7-4H17v-2h-6.2l-0.7-4h31.6l-0.7,4H38v2h2.8l-6.7,40H17.8l-0.7-4H20v-2h-3.2l-0.7-4H22v-2h-6.2L15.2,47z"/>
	<rect x="18" y="27" class="st0" width="6" height="2"/>
	<rect x="22" y="57" class="st0" width="4" height="2"/>
	<rect x="24" y="51" class="st0" width="2" height="2"/>
	<rect x="20" y="45" class="st0" width="6" height="2"/>
	<rect x="22" y="33" class="st0" width="4" height="2"/>
	<rect x="19" y="21" class="st0" width="7" height="2"/>
	<rect x="33" y="33" class="st0" width="3" height="2"/>
	<rect x="30" y="45" class="st0" width="3" height="2"/>
	<rect x="29" y="27" class="st0" width="3" height="2"/>
	<rect x="30" y="57" class="st0" width="3" height="2"/>
	<path class="st0" d="M47,56h2v9.4l-0.8,0.4c-1.1,0.6-1.6,1.9-1,3c0.4,0.8,1.2,1.2,2,1.2H55c0.6,0,1-0.4,1-1V16c0-0.6-0.4-1-1-1
		c-5,0-9,4-9,9v31C46,55.6,46.4,56,47,56z M54,68h-4.8c-0.1,0-0.2-0.1-0.2-0.2c0-0.1,0.1-0.2,0.1-0.2l1.3-0.7
		c0.3-0.2,0.5-0.5,0.5-0.9V56h3V68z M48,24c0-3.5,2.6-6.4,6-6.9V54h-6V24z"/>
</g>
</svg>
