<?xml version="1.0" encoding="utf-8"?>
<!-- Generator: Adobe Illustrator 22.1.0, SVG Export Plug-In . SVG Version: 6.00 Build 0)  -->
<svg version="1.1"
	 id="svg2" inkscape:version="0.91 r13725" xmlns:cc="http://web.resource.org/cc/" xmlns:dc="http://purl.org/dc/elements/1.1/" xmlns:inkscape="http://www.inkscape.org/namespaces/inkscape" xmlns:ns1="http://sozi.baierouge.fr" xmlns:rdf="http://www.w3.org/1999/02/22-rdf-syntax-ns#" xmlns:sodipodi="http://sodipodi.sourceforge.net/DTD/sodipodi-0.dtd" xmlns:svg="http://www.w3.org/2000/svg"
	 xmlns="http://www.w3.org/2000/svg" xmlns:xlink="http://www.w3.org/1999/xlink" x="0px" y="0px" viewBox="0 0 512 512"
	 style="enable-background:new 0 0 512 512;" xml:space="preserve">
<style type="text/css">
	.st0{fill:#FFBD48;stroke:#8B3200;stroke-miterlimit:10;}
</style>
<g id="layer2">
	<rect id="rect2442" class="st0" width="64" height="8"/>
	<rect id="rect2444" y="8" class="st0" width="64" height="8"/>
	<rect id="rect2446" x="64" class="st0" width="8" height="64"/>
	<rect id="rect2448" x="72" class="st0" width="8" height="64"/>
	<rect id="rect2450" y="16" class="st0" width="64" height="8"/>
	<rect id="rect2452" y="24" class="st0" width="64" height="8"/>
	<rect id="rect2454" y="32" class="st0" width="64" height="8"/>
	<rect id="rect2456" y="40" class="st0" width="64" height="8"/>
	<rect id="rect2458" y="48" class="st0" width="64" height="8"/>
	<rect id="rect2460" y="56" class="st0" width="64" height="8"/>
	<rect id="rect2462" x="80" class="st0" width="8" height="64"/>
	<rect id="rect2464" x="88" class="st0" width="8" height="64"/>
	<rect id="rect2466" x="96" class="st0" width="8" height="64"/>
	<rect id="rect2468" x="104" class="st0" width="8" height="64"/>
	<rect id="rect2470" x="112" class="st0" width="8" height="64"/>
	<rect id="rect2472" x="120" class="st0" width="8" height="64"/>
	<rect id="rect2538" y="64" class="st0" width="8" height="64"/>
	<rect id="rect2540" x="8" y="64" class="st0" width="8" height="64"/>
	<rect id="rect2542" x="16" y="64" class="st0" width="8" height="64"/>
	<rect id="rect2544" x="24" y="64" class="st0" width="8" height="64"/>
	<rect id="rect2546" x="32" y="64" class="st0" width="8" height="64"/>
	<rect id="rect2548" x="40" y="64" class="st0" width="8" height="64"/>
	<rect id="rect2550" x="48" y="64" class="st0" width="8" height="64"/>
	<rect id="rect2552" x="56" y="64" class="st0" width="8" height="64"/>
	<rect id="rect2554" x="64" y="64" class="st0" width="64" height="8"/>
	<rect id="rect2556" x="64" y="72" class="st0" width="64" height="8"/>
	<rect id="rect2558" x="64" y="80" class="st0" width="64" height="8"/>
	<rect id="rect2560" x="64" y="88" class="st0" width="64" height="8"/>
	<rect id="rect2562" x="64" y="96" class="st0" width="64" height="8"/>
	<rect id="rect2564" x="64" y="104" class="st0" width="64" height="8"/>
	<rect id="rect2566" x="64" y="112" class="st0" width="64" height="8"/>
	<rect id="rect2568" x="64" y="120" class="st0" width="64" height="8"/>
	<rect id="rect2570" x="128" class="st0" width="64" height="8"/>
	<rect id="rect2572" x="128" y="8" class="st0" width="64" height="8"/>
	<rect id="rect2574" x="192" class="st0" width="8" height="64"/>
	<rect id="rect2576" x="200" class="st0" width="8" height="64"/>
	<rect id="rect2578" x="128" y="16" class="st0" width="64" height="8"/>
	<rect id="rect2580" x="128" y="24" class="st0" width="64" height="8"/>
	<rect id="rect2582" x="128" y="32" class="st0" width="64" height="8"/>
	<rect id="rect2584" x="128" y="40" class="st0" width="64" height="8"/>
	<rect id="rect2586" x="128" y="48" class="st0" width="64" height="8"/>
	<rect id="rect2588" x="128" y="56" class="st0" width="64" height="8"/>
	<rect id="rect2590" x="208" class="st0" width="8" height="64"/>
	<rect id="rect2592" x="216" class="st0" width="8" height="64"/>
	<rect id="rect2594" x="224" class="st0" width="8" height="64"/>
	<rect id="rect2596" x="232" class="st0" width="8" height="64"/>
	<rect id="rect2598" x="240" class="st0" width="8" height="64"/>
	<rect id="rect2600" x="248" class="st0" width="8" height="64"/>
	<rect id="rect2602" x="128" y="64" class="st0" width="8" height="64"/>
	<rect id="rect2604" x="136" y="64" class="st0" width="8" height="64"/>
	<rect id="rect2606" x="144" y="64" class="st0" width="8" height="64"/>
	<rect id="rect2608" x="152" y="64" class="st0" width="8" height="64"/>
	<rect id="rect2610" x="160" y="64" class="st0" width="8" height="64"/>
	<rect id="rect2612" x="168" y="64" class="st0" width="8" height="64"/>
	<rect id="rect2614" x="176" y="64" class="st0" width="8" height="64"/>
	<rect id="rect2616" x="184" y="64" class="st0" width="8" height="64"/>
	<rect id="rect2618" x="192" y="64" class="st0" width="64" height="8"/>
	<rect id="rect2620" x="192" y="72" class="st0" width="64" height="8"/>
	<rect id="rect2622" x="192" y="80" class="st0" width="64" height="8"/>
	<rect id="rect2624" x="192" y="88" class="st0" width="64" height="8"/>
	<rect id="rect2626" x="192" y="96" class="st0" width="64" height="8"/>
	<rect id="rect2628" x="192" y="104" class="st0" width="64" height="8"/>
	<rect id="rect2630" x="192" y="112" class="st0" width="64" height="8"/>
	<rect id="rect2632" x="192" y="120" class="st0" width="64" height="8"/>
	<rect id="rect2634" y="128" class="st0" width="64" height="8"/>
	<rect id="rect2636" y="136" class="st0" width="64" height="8"/>
	<rect id="rect2638" x="64" y="128" class="st0" width="8" height="64"/>
	<rect id="rect2640" x="72" y="128" class="st0" width="8" height="64"/>
	<rect id="rect2642" y="144" class="st0" width="64" height="8"/>
	<rect id="rect2644" y="152" class="st0" width="64" height="8"/>
	<rect id="rect2646" y="160" class="st0" width="64" height="8"/>
	<rect id="rect2648" y="168" class="st0" width="64" height="8"/>
	<rect id="rect2650" y="176" class="st0" width="64" height="8"/>
	<rect id="rect2652" y="184" class="st0" width="64" height="8"/>
	<rect id="rect2654" x="80" y="128" class="st0" width="8" height="64"/>
	<rect id="rect2656" x="88" y="128" class="st0" width="8" height="64"/>
	<rect id="rect2658" x="96" y="128" class="st0" width="8" height="64"/>
	<rect id="rect2660" x="104" y="128" class="st0" width="8" height="64"/>
	<rect id="rect2662" x="112" y="128" class="st0" width="8" height="64"/>
	<rect id="rect2664" x="120" y="128" class="st0" width="8" height="64"/>
	<rect id="rect2666" y="192" class="st0" width="8" height="64"/>
	<rect id="rect2668" x="8" y="192" class="st0" width="8" height="64"/>
	<rect id="rect2670" x="16" y="192" class="st0" width="8" height="64"/>
	<rect id="rect2672" x="24" y="192" class="st0" width="8" height="64"/>
	<rect id="rect2674" x="32" y="192" class="st0" width="8" height="64"/>
	<rect id="rect2676" x="40" y="192" class="st0" width="8" height="64"/>
	<rect id="rect2678" x="48" y="192" class="st0" width="8" height="64"/>
	<rect id="rect2680" x="56" y="192" class="st0" width="8" height="64"/>
	<rect id="rect2682" x="64" y="192" class="st0" width="64" height="8"/>
	<rect id="rect2684" x="64" y="200" class="st0" width="64" height="8"/>
	<rect id="rect2686" x="64" y="208" class="st0" width="64" height="8"/>
	<rect id="rect2688" x="64" y="216" class="st0" width="64" height="8"/>
	<rect id="rect2690" x="64" y="224" class="st0" width="64" height="8"/>
	<rect id="rect2692" x="64" y="232" class="st0" width="64" height="8"/>
	<rect id="rect2694" x="64" y="240" class="st0" width="64" height="8"/>
	<rect id="rect2696" x="64" y="248" class="st0" width="64" height="8"/>
	<rect id="rect2698" x="128" y="128" class="st0" width="64" height="8"/>
	<rect id="rect2700" x="128" y="136" class="st0" width="64" height="8"/>
	<rect id="rect2702" x="192" y="128" class="st0" width="8" height="64"/>
	<rect id="rect2704" x="200" y="128" class="st0" width="8" height="64"/>
	<rect id="rect2706" x="128" y="144" class="st0" width="64" height="8"/>
	<rect id="rect2708" x="128" y="152" class="st0" width="64" height="8"/>
	<rect id="rect2710" x="128" y="160" class="st0" width="64" height="8"/>
	<rect id="rect2712" x="128" y="168" class="st0" width="64" height="8"/>
	<rect id="rect2714" x="128" y="176" class="st0" width="64" height="8"/>
	<rect id="rect2716" x="128" y="184" class="st0" width="64" height="8"/>
	<rect id="rect2718" x="208" y="128" class="st0" width="8" height="64"/>
	<rect id="rect2720" x="216" y="128" class="st0" width="8" height="64"/>
	<rect id="rect2722" x="224" y="128" class="st0" width="8" height="64"/>
	<rect id="rect2724" x="232" y="128" class="st0" width="8" height="64"/>
	<rect id="rect2726" x="240" y="128" class="st0" width="8" height="64"/>
	<rect id="rect2728" x="248" y="128" class="st0" width="8" height="64"/>
	<rect id="rect2730" x="128" y="192" class="st0" width="8" height="64"/>
	<rect id="rect2732" x="136" y="192" class="st0" width="8" height="64"/>
	<rect id="rect2734" x="144" y="192" class="st0" width="8" height="64"/>
	<rect id="rect2736" x="152" y="192" class="st0" width="8" height="64"/>
	<rect id="rect2738" x="160" y="192" class="st0" width="8" height="64"/>
	<rect id="rect2740" x="168" y="192" class="st0" width="8" height="64"/>
	<rect id="rect2742" x="176" y="192" class="st0" width="8" height="64"/>
	<rect id="rect2744" x="184" y="192" class="st0" width="8" height="64"/>
	<rect id="rect2746" x="192" y="192" class="st0" width="64" height="8"/>
	<rect id="rect2748" x="192" y="200" class="st0" width="64" height="8"/>
	<rect id="rect2750" x="192" y="208" class="st0" width="64" height="8"/>
	<rect id="rect2752" x="192" y="216" class="st0" width="64" height="8"/>
	<rect id="rect2754" x="192" y="224" class="st0" width="64" height="8"/>
	<rect id="rect2756" x="192" y="232" class="st0" width="64" height="8"/>
	<rect id="rect2758" x="192" y="240" class="st0" width="64" height="8"/>
	<rect id="rect2760" x="192" y="248" class="st0" width="64" height="8"/>
	<rect id="rect2762" x="256" class="st0" width="64" height="8"/>
	<rect id="rect2764" x="256" y="8" class="st0" width="64" height="8"/>
	<rect id="rect2766" x="320" class="st0" width="8" height="64"/>
	<rect id="rect2768" x="328" class="st0" width="8" height="64"/>
	<rect id="rect2770" x="256" y="16" class="st0" width="64" height="8"/>
	<rect id="rect2772" x="256" y="24" class="st0" width="64" height="8"/>
	<rect id="rect2774" x="256" y="32" class="st0" width="64" height="8"/>
	<rect id="rect2776" x="256" y="40" class="st0" width="64" height="8"/>
	<rect id="rect2778" x="256" y="48" class="st0" width="64" height="8"/>
	<rect id="rect2780" x="256" y="56" class="st0" width="64" height="8"/>
	<rect id="rect2782" x="336" class="st0" width="8" height="64"/>
	<rect id="rect2784" x="344" class="st0" width="8" height="64"/>
	<rect id="rect2786" x="352" class="st0" width="8" height="64"/>
	<rect id="rect2788" x="360" class="st0" width="8" height="64"/>
	<rect id="rect2790" x="368" class="st0" width="8" height="64"/>
	<rect id="rect2792" x="376" class="st0" width="8" height="64"/>
	<rect id="rect2794" x="256" y="64" class="st0" width="8" height="64"/>
	<rect id="rect2796" x="264" y="64" class="st0" width="8" height="64"/>
	<rect id="rect2798" x="272" y="64" class="st0" width="8" height="64"/>
	<rect id="rect2800" x="280" y="64" class="st0" width="8" height="64"/>
	<rect id="rect2802" x="288" y="64" class="st0" width="8" height="64"/>
	<rect id="rect2804" x="296" y="64" class="st0" width="8" height="64"/>
	<rect id="rect2806" x="304" y="64" class="st0" width="8" height="64"/>
	<rect id="rect2808" x="312" y="64" class="st0" width="8" height="64"/>
	<rect id="rect2810" x="320" y="64" class="st0" width="64" height="8"/>
	<rect id="rect2812" x="320" y="72" class="st0" width="64" height="8"/>
	<rect id="rect2814" x="320" y="80" class="st0" width="64" height="8"/>
	<rect id="rect2816" x="320" y="88" class="st0" width="64" height="8"/>
	<rect id="rect2818" x="320" y="96" class="st0" width="64" height="8"/>
	<rect id="rect2820" x="320" y="104" class="st0" width="64" height="8"/>
	<rect id="rect2822" x="320" y="112" class="st0" width="64" height="8"/>
	<rect id="rect2824" x="320" y="120" class="st0" width="64" height="8"/>
	<rect id="rect2826" x="384" class="st0" width="64" height="8"/>
	<rect id="rect2828" x="384" y="8" class="st0" width="64" height="8"/>
	<rect id="rect2830" x="448" class="st0" width="8" height="64"/>
	<rect id="rect2832" x="456" class="st0" width="8" height="64"/>
	<rect id="rect2834" x="384" y="16" class="st0" width="64" height="8"/>
	<rect id="rect2836" x="384" y="24" class="st0" width="64" height="8"/>
	<rect id="rect2838" x="384" y="32" class="st0" width="64" height="8"/>
	<rect id="rect2840" x="384" y="40" class="st0" width="64" height="8"/>
	<rect id="rect2842" x="384" y="48" class="st0" width="64" height="8"/>
	<rect id="rect2844" x="384" y="56" class="st0" width="64" height="8"/>
	<rect id="rect2846" x="464" class="st0" width="8" height="64"/>
	<rect id="rect2848" x="472" class="st0" width="8" height="64"/>
	<rect id="rect2850" x="480" class="st0" width="8" height="64"/>
	<rect id="rect2852" x="488" class="st0" width="8" height="64"/>
	<rect id="rect2854" x="496" class="st0" width="8" height="64"/>
	<rect id="rect2856" x="504" class="st0" width="8" height="64"/>
	<rect id="rect2858" x="384" y="64" class="st0" width="8" height="64"/>
	<rect id="rect2860" x="392" y="64" class="st0" width="8" height="64"/>
	<rect id="rect2862" x="400" y="64" class="st0" width="8" height="64"/>
	<rect id="rect2864" x="408" y="64" class="st0" width="8" height="64"/>
	<rect id="rect2866" x="416" y="64" class="st0" width="8" height="64"/>
	<rect id="rect2868" x="424" y="64" class="st0" width="8" height="64"/>
	<rect id="rect2870" x="432" y="64" class="st0" width="8" height="64"/>
	<rect id="rect2872" x="440" y="64" class="st0" width="8" height="64"/>
	<rect id="rect2874" x="448" y="64" class="st0" width="64" height="8"/>
	<rect id="rect2876" x="448" y="72" class="st0" width="64" height="8"/>
	<rect id="rect2878" x="448" y="80" class="st0" width="64" height="8"/>
	<rect id="rect2880" x="448" y="88" class="st0" width="64" height="8"/>
	<rect id="rect2882" x="448" y="96" class="st0" width="64" height="8"/>
	<rect id="rect2884" x="448" y="104" class="st0" width="64" height="8"/>
	<rect id="rect2886" x="448" y="112" class="st0" width="64" height="8"/>
	<rect id="rect2888" x="448" y="120" class="st0" width="64" height="8"/>
	<rect id="rect2890" x="256" y="128" class="st0" width="64" height="8"/>
	<rect id="rect2892" x="256" y="136" class="st0" width="64" height="8"/>
	<rect id="rect2894" x="320" y="128" class="st0" width="8" height="64"/>
	<rect id="rect2896" x="328" y="128" class="st0" width="8" height="64"/>
	<rect id="rect2898" x="256" y="144" class="st0" width="64" height="8"/>
	<rect id="rect2900" x="256" y="152" class="st0" width="64" height="8"/>
	<rect id="rect2902" x="256" y="160" class="st0" width="64" height="8"/>
	<rect id="rect2904" x="256" y="168" class="st0" width="64" height="8"/>
	<rect id="rect2906" x="256" y="176" class="st0" width="64" height="8"/>
	<rect id="rect2908" x="256" y="184" class="st0" width="64" height="8"/>
	<rect id="rect2910" x="336" y="128" class="st0" width="8" height="64"/>
	<rect id="rect2912" x="344" y="128" class="st0" width="8" height="64"/>
	<rect id="rect2914" x="352" y="128" class="st0" width="8" height="64"/>
	<rect id="rect2916" x="360" y="128" class="st0" width="8" height="64"/>
	<rect id="rect2918" x="368" y="128" class="st0" width="8" height="64"/>
	<rect id="rect2920" x="376" y="128" class="st0" width="8" height="64"/>
	<rect id="rect2922" x="256" y="192" class="st0" width="8" height="64"/>
	<rect id="rect2924" x="264" y="192" class="st0" width="8" height="64"/>
	<rect id="rect2926" x="272" y="192" class="st0" width="8" height="64"/>
	<rect id="rect2928" x="280" y="192" class="st0" width="8" height="64"/>
	<rect id="rect2930" x="288" y="192" class="st0" width="8" height="64"/>
	<rect id="rect2932" x="296" y="192" class="st0" width="8" height="64"/>
	<rect id="rect2934" x="304" y="192" class="st0" width="8" height="64"/>
	<rect id="rect2936" x="312" y="192" class="st0" width="8" height="64"/>
	<rect id="rect2938" x="320" y="192" class="st0" width="64" height="8"/>
	<rect id="rect2940" x="320" y="200" class="st0" width="64" height="8"/>
	<rect id="rect2942" x="320" y="208" class="st0" width="64" height="8"/>
	<rect id="rect2944" x="320" y="216" class="st0" width="64" height="8"/>
	<rect id="rect2946" x="320" y="224" class="st0" width="64" height="8"/>
	<rect id="rect2948" x="320" y="232" class="st0" width="64" height="8"/>
	<rect id="rect2950" x="320" y="240" class="st0" width="64" height="8"/>
	<rect id="rect2952" x="320" y="248" class="st0" width="64" height="8"/>
	<rect id="rect2954" x="384" y="128" class="st0" width="64" height="8"/>
	<rect id="rect2956" x="384" y="136" class="st0" width="64" height="8"/>
	<rect id="rect2958" x="448" y="128" class="st0" width="8" height="64"/>
	<rect id="rect2960" x="456" y="128" class="st0" width="8" height="64"/>
	<rect id="rect2962" x="384" y="144" class="st0" width="64" height="8"/>
	<rect id="rect2964" x="384" y="152" class="st0" width="64" height="8"/>
	<rect id="rect2966" x="384" y="160" class="st0" width="64" height="8"/>
	<rect id="rect2968" x="384" y="168" class="st0" width="64" height="8"/>
	<rect id="rect2970" x="384" y="176" class="st0" width="64" height="8"/>
	<rect id="rect2972" x="384" y="184" class="st0" width="64" height="8"/>
	<rect id="rect2974" x="464" y="128" class="st0" width="8" height="64"/>
	<rect id="rect2976" x="472" y="128" class="st0" width="8" height="64"/>
	<rect id="rect2978" x="480" y="128" class="st0" width="8" height="64"/>
	<rect id="rect2980" x="488" y="128" class="st0" width="8" height="64"/>
	<rect id="rect2982" x="496" y="128" class="st0" width="8" height="64"/>
	<rect id="rect2984" x="504" y="128" class="st0" width="8" height="64"/>
	<rect id="rect2986" x="384" y="192" class="st0" width="8" height="64"/>
	<rect id="rect2988" x="392" y="192" class="st0" width="8" height="64"/>
	<rect id="rect2990" x="400" y="192" class="st0" width="8" height="64"/>
	<rect id="rect2992" x="408" y="192" class="st0" width="8" height="64"/>
	<rect id="rect2994" x="416" y="192" class="st0" width="8" height="64"/>
	<rect id="rect2996" x="424" y="192" class="st0" width="8" height="64"/>
	<rect id="rect2998" x="432" y="192" class="st0" width="8" height="64"/>
	<rect id="rect3000" x="440" y="192" class="st0" width="8" height="64"/>
	<rect id="rect3002" x="448" y="192" class="st0" width="64" height="8"/>
	<rect id="rect3004" x="448" y="200" class="st0" width="64" height="8"/>
	<rect id="rect3006" x="448" y="208" class="st0" width="64" height="8"/>
	<rect id="rect3008" x="448" y="216" class="st0" width="64" height="8"/>
	<rect id="rect3010" x="448" y="224" class="st0" width="64" height="8"/>
	<rect id="rect3012" x="448" y="232" class="st0" width="64" height="8"/>
	<rect id="rect3014" x="448" y="240" class="st0" width="64" height="8"/>
	<rect id="rect3016" x="448" y="248" class="st0" width="64" height="8"/>
	<rect id="rect3018" y="256" class="st0" width="64" height="8"/>
	<rect id="rect3020" y="264" class="st0" width="64" height="8"/>
	<rect id="rect3022" x="64" y="256" class="st0" width="8" height="64"/>
	<rect id="rect3024" x="72" y="256" class="st0" width="8" height="64"/>
	<rect id="rect3026" y="272" class="st0" width="64" height="8"/>
	<rect id="rect3028" y="280" class="st0" width="64" height="8"/>
	<rect id="rect3030" y="288" class="st0" width="64" height="8"/>
	<rect id="rect3032" y="296" class="st0" width="64" height="8"/>
	<rect id="rect3034" y="304" class="st0" width="64" height="8"/>
	<rect id="rect3036" y="312" class="st0" width="64" height="8"/>
	<rect id="rect3038" x="80" y="256" class="st0" width="8" height="64"/>
	<rect id="rect3040" x="88" y="256" class="st0" width="8" height="64"/>
	<rect id="rect3042" x="96" y="256" class="st0" width="8" height="64"/>
	<rect id="rect3044" x="104" y="256" class="st0" width="8" height="64"/>
	<rect id="rect3046" x="112" y="256" class="st0" width="8" height="64"/>
	<rect id="rect3048" x="120" y="256" class="st0" width="8" height="64"/>
	<rect id="rect3050" y="320" class="st0" width="8" height="64"/>
	<rect id="rect3052" x="8" y="320" class="st0" width="8" height="64"/>
	<rect id="rect3054" x="16" y="320" class="st0" width="8" height="64"/>
	<rect id="rect3056" x="24" y="320" class="st0" width="8" height="64"/>
	<rect id="rect3058" x="32" y="320" class="st0" width="8" height="64"/>
	<rect id="rect3060" x="40" y="320" class="st0" width="8" height="64"/>
	<rect id="rect3062" x="48" y="320" class="st0" width="8" height="64"/>
	<rect id="rect3064" x="56" y="320" class="st0" width="8" height="64"/>
	<rect id="rect3066" x="64" y="320" class="st0" width="64" height="8"/>
	<rect id="rect3068" x="64" y="328" class="st0" width="64" height="8"/>
	<rect id="rect3070" x="64" y="336" class="st0" width="64" height="8"/>
	<rect id="rect3072" x="64" y="344" class="st0" width="64" height="8"/>
	<rect id="rect3074" x="64" y="352" class="st0" width="64" height="8"/>
	<rect id="rect3076" x="64" y="360" class="st0" width="64" height="8"/>
	<rect id="rect3078" x="64" y="368" class="st0" width="64" height="8"/>
	<rect id="rect3080" x="64" y="376" class="st0" width="64" height="8"/>
	<rect id="rect3082" x="128" y="256" class="st0" width="64" height="8"/>
	<rect id="rect3084" x="128" y="264" class="st0" width="64" height="8"/>
	<rect id="rect3086" x="192" y="256" class="st0" width="8" height="64"/>
	<rect id="rect3088" x="200" y="256" class="st0" width="8" height="64"/>
	<rect id="rect3090" x="128" y="272" class="st0" width="64" height="8"/>
	<rect id="rect3092" x="128" y="280" class="st0" width="64" height="8"/>
	<rect id="rect3094" x="128" y="288" class="st0" width="64" height="8"/>
	<rect id="rect3096" x="128" y="296" class="st0" width="64" height="8"/>
	<rect id="rect3098" x="128" y="304" class="st0" width="64" height="8"/>
	<rect id="rect3100" x="128" y="312" class="st0" width="64" height="8"/>
	<rect id="rect3102" x="208" y="256" class="st0" width="8" height="64"/>
	<rect id="rect3104" x="216" y="256" class="st0" width="8" height="64"/>
	<rect id="rect3106" x="224" y="256" class="st0" width="8" height="64"/>
	<rect id="rect3108" x="232" y="256" class="st0" width="8" height="64"/>
	<rect id="rect3110" x="240" y="256" class="st0" width="8" height="64"/>
	<rect id="rect3112" x="248" y="256" class="st0" width="8" height="64"/>
	<rect id="rect3114" x="128" y="320" class="st0" width="8" height="64"/>
	<rect id="rect3116" x="136" y="320" class="st0" width="8" height="64"/>
	<rect id="rect3118" x="144" y="320" class="st0" width="8" height="64"/>
	<rect id="rect3120" x="152" y="320" class="st0" width="8" height="64"/>
	<rect id="rect3122" x="160" y="320" class="st0" width="8" height="64"/>
	<rect id="rect3124" x="168" y="320" class="st0" width="8" height="64"/>
	<rect id="rect3126" x="176" y="320" class="st0" width="8" height="64"/>
	<rect id="rect3128" x="184" y="320" class="st0" width="8" height="64"/>
	<rect id="rect3130" x="192" y="320" class="st0" width="64" height="8"/>
	<rect id="rect3132" x="192" y="328" class="st0" width="64" height="8"/>
	<rect id="rect3134" x="192" y="336" class="st0" width="64" height="8"/>
	<rect id="rect3136" x="192" y="344" class="st0" width="64" height="8"/>
	<rect id="rect3138" x="192" y="352" class="st0" width="64" height="8"/>
	<rect id="rect3140" x="192" y="360" class="st0" width="64" height="8"/>
	<rect id="rect3142" x="192" y="368" class="st0" width="64" height="8"/>
	<rect id="rect3144" x="192" y="376" class="st0" width="64" height="8"/>
	<rect id="rect3146" y="384" class="st0" width="64" height="8"/>
	<rect id="rect3148" y="392" class="st0" width="64" height="8"/>
	<rect id="rect3150" x="64" y="384" class="st0" width="8" height="64"/>
	<rect id="rect3152" x="72" y="384" class="st0" width="8" height="64"/>
	<rect id="rect3154" y="400" class="st0" width="64" height="8"/>
	<rect id="rect3156" y="408" class="st0" width="64" height="8"/>
	<rect id="rect3158" y="416" class="st0" width="64" height="8"/>
	<rect id="rect3160" y="424" class="st0" width="64" height="8"/>
	<rect id="rect3162" y="432" class="st0" width="64" height="8"/>
	<rect id="rect3164" y="440" class="st0" width="64" height="8"/>
	<rect id="rect3166" x="80" y="384" class="st0" width="8" height="64"/>
	<rect id="rect3168" x="88" y="384" class="st0" width="8" height="64"/>
	<rect id="rect3170" x="96" y="384" class="st0" width="8" height="64"/>
	<rect id="rect3172" x="104" y="384" class="st0" width="8" height="64"/>
	<rect id="rect3174" x="112" y="384" class="st0" width="8" height="64"/>
	<rect id="rect3176" x="120" y="384" class="st0" width="8" height="64"/>
	<rect id="rect3178" y="448" class="st0" width="8" height="64"/>
	<rect id="rect3180" x="8" y="448" class="st0" width="8" height="64"/>
	<rect id="rect3182" x="16" y="448" class="st0" width="8" height="64"/>
	<rect id="rect3184" x="24" y="448" class="st0" width="8" height="64"/>
	<rect id="rect3186" x="32" y="448" class="st0" width="8" height="64"/>
	<rect id="rect3188" x="40" y="448" class="st0" width="8" height="64"/>
	<rect id="rect3190" x="48" y="448" class="st0" width="8" height="64"/>
	<rect id="rect3192" x="56" y="448" class="st0" width="8" height="64"/>
	<rect id="rect3194" x="64" y="448" class="st0" width="64" height="8"/>
	<rect id="rect3196" x="64" y="456" class="st0" width="64" height="8"/>
	<rect id="rect3198" x="64" y="464" class="st0" width="64" height="8"/>
	<rect id="rect3200" x="64" y="472" class="st0" width="64" height="8"/>
	<rect id="rect3202" x="64" y="480" class="st0" width="64" height="8"/>
	<rect id="rect3204" x="64" y="488" class="st0" width="64" height="8"/>
	<rect id="rect3206" x="64" y="496" class="st0" width="64" height="8"/>
	<rect id="rect3208" x="64" y="504" class="st0" width="64" height="8"/>
	<rect id="rect3210" x="128" y="384" class="st0" width="64" height="8"/>
	<rect id="rect3212" x="128" y="392" class="st0" width="64" height="8"/>
	<rect id="rect3214" x="192" y="384" class="st0" width="8" height="64"/>
	<rect id="rect3216" x="200" y="384" class="st0" width="8" height="64"/>
	<rect id="rect3218" x="128" y="400" class="st0" width="64" height="8"/>
	<rect id="rect3220" x="128" y="408" class="st0" width="64" height="8"/>
	<rect id="rect3222" x="128" y="416" class="st0" width="64" height="8"/>
	<rect id="rect3224" x="128" y="424" class="st0" width="64" height="8"/>
	<rect id="rect3226" x="128" y="432" class="st0" width="64" height="8"/>
	<rect id="rect3228" x="128" y="440" class="st0" width="64" height="8"/>
	<rect id="rect3230" x="208" y="384" class="st0" width="8" height="64"/>
	<rect id="rect3232" x="216" y="384" class="st0" width="8" height="64"/>
	<rect id="rect3234" x="224" y="384" class="st0" width="8" height="64"/>
	<rect id="rect3236" x="232" y="384" class="st0" width="8" height="64"/>
	<rect id="rect3238" x="240" y="384" class="st0" width="8" height="64"/>
	<rect id="rect3240" x="248" y="384" class="st0" width="8" height="64"/>
	<rect id="rect3242" x="128" y="448" class="st0" width="8" height="64"/>
	<rect id="rect3244" x="136" y="448" class="st0" width="8" height="64"/>
	<rect id="rect3246" x="144" y="448" class="st0" width="8" height="64"/>
	<rect id="rect3248" x="152" y="448" class="st0" width="8" height="64"/>
	<rect id="rect3250" x="160" y="448" class="st0" width="8" height="64"/>
	<rect id="rect3252" x="168" y="448" class="st0" width="8" height="64"/>
	<rect id="rect3254" x="176" y="448" class="st0" width="8" height="64"/>
	<rect id="rect3256" x="184" y="448" class="st0" width="8" height="64"/>
	<rect id="rect3258" x="192" y="448" class="st0" width="64" height="8"/>
	<rect id="rect3260" x="192" y="456" class="st0" width="64" height="8"/>
	<rect id="rect3262" x="192" y="464" class="st0" width="64" height="8"/>
	<rect id="rect3264" x="192" y="472" class="st0" width="64" height="8"/>
	<rect id="rect3266" x="192" y="480" class="st0" width="64" height="8"/>
	<rect id="rect3268" x="192" y="488" class="st0" width="64" height="8"/>
	<rect id="rect3270" x="192" y="496" class="st0" width="64" height="8"/>
	<rect id="rect3272" x="192" y="504" class="st0" width="64" height="8"/>
	<rect id="rect3274" x="256" y="256" class="st0" width="64" height="8"/>
	<rect id="rect3276" x="256" y="264" class="st0" width="64" height="8"/>
	<rect id="rect3278" x="320" y="256" class="st0" width="8" height="64"/>
	<rect id="rect3280" x="328" y="256" class="st0" width="8" height="64"/>
	<rect id="rect3282" x="256" y="272" class="st0" width="64" height="8"/>
	<rect id="rect3284" x="256" y="280" class="st0" width="64" height="8"/>
	<rect id="rect3286" x="256" y="288" class="st0" width="64" height="8"/>
	<rect id="rect3288" x="256" y="296" class="st0" width="64" height="8"/>
	<rect id="rect3290" x="256" y="304" class="st0" width="64" height="8"/>
	<rect id="rect3292" x="256" y="312" class="st0" width="64" height="8"/>
	<rect id="rect3294" x="336" y="256" class="st0" width="8" height="64"/>
	<rect id="rect3296" x="344" y="256" class="st0" width="8" height="64"/>
	<rect id="rect3298" x="352" y="256" class="st0" width="8" height="64"/>
	<rect id="rect3300" x="360" y="256" class="st0" width="8" height="64"/>
	<rect id="rect3302" x="368" y="256" class="st0" width="8" height="64"/>
	<rect id="rect3304" x="376" y="256" class="st0" width="8" height="64"/>
	<rect id="rect3306" x="256" y="320" class="st0" width="8" height="64"/>
	<rect id="rect3308" x="264" y="320" class="st0" width="8" height="64"/>
	<rect id="rect3310" x="272" y="320" class="st0" width="8" height="64"/>
	<rect id="rect3312" x="280" y="320" class="st0" width="8" height="64"/>
	<rect id="rect3314" x="288" y="320" class="st0" width="8" height="64"/>
	<rect id="rect3316" x="296" y="320" class="st0" width="8" height="64"/>
	<rect id="rect3318" x="304" y="320" class="st0" width="8" height="64"/>
	<rect id="rect3320" x="312" y="320" class="st0" width="8" height="64"/>
	<rect id="rect3322" x="320" y="320" class="st0" width="64" height="8"/>
	<rect id="rect3324" x="320" y="328" class="st0" width="64" height="8"/>
	<rect id="rect3326" x="320" y="336" class="st0" width="64" height="8"/>
	<rect id="rect3328" x="320" y="344" class="st0" width="64" height="8"/>
	<rect id="rect3330" x="320" y="352" class="st0" width="64" height="8"/>
	<rect id="rect3332" x="320" y="360" class="st0" width="64" height="8"/>
	<rect id="rect3334" x="320" y="368" class="st0" width="64" height="8"/>
	<rect id="rect3336" x="320" y="376" class="st0" width="64" height="8"/>
	<rect id="rect3338" x="384" y="256" class="st0" width="64" height="8"/>
	<rect id="rect3340" x="384" y="264" class="st0" width="64" height="8"/>
	<rect id="rect3342" x="448" y="256" class="st0" width="8" height="64"/>
	<rect id="rect3344" x="456" y="256" class="st0" width="8" height="64"/>
	<rect id="rect3346" x="384" y="272" class="st0" width="64" height="8"/>
	<rect id="rect3348" x="384" y="280" class="st0" width="64" height="8"/>
	<rect id="rect3350" x="384" y="288" class="st0" width="64" height="8"/>
	<rect id="rect3352" x="384" y="296" class="st0" width="64" height="8"/>
	<rect id="rect3354" x="384" y="304" class="st0" width="64" height="8"/>
	<rect id="rect3356" x="384" y="312" class="st0" width="64" height="8"/>
	<rect id="rect3358" x="464" y="256" class="st0" width="8" height="64"/>
	<rect id="rect3360" x="472" y="256" class="st0" width="8" height="64"/>
	<rect id="rect3362" x="480" y="256" class="st0" width="8" height="64"/>
	<rect id="rect3364" x="488" y="256" class="st0" width="8" height="64"/>
	<rect id="rect3366" x="496" y="256" class="st0" width="8" height="64"/>
	<rect id="rect3368" x="504" y="256" class="st0" width="8" height="64"/>
	<rect id="rect3370" x="384" y="320" class="st0" width="8" height="64"/>
	<rect id="rect3372" x="392" y="320" class="st0" width="8" height="64"/>
	<rect id="rect3374" x="400" y="320" class="st0" width="8" height="64"/>
	<rect id="rect3376" x="408" y="320" class="st0" width="8" height="64"/>
	<rect id="rect3378" x="416" y="320" class="st0" width="8" height="64"/>
	<rect id="rect3380" x="424" y="320" class="st0" width="8" height="64"/>
	<rect id="rect3382" x="432" y="320" class="st0" width="8" height="64"/>
	<rect id="rect3384" x="440" y="320" class="st0" width="8" height="64"/>
	<rect id="rect3386" x="448" y="320" class="st0" width="64" height="8"/>
	<rect id="rect3388" x="448" y="328" class="st0" width="64" height="8"/>
	<rect id="rect3390" x="448" y="336" class="st0" width="64" height="8"/>
	<rect id="rect3392" x="448" y="344" class="st0" width="64" height="8"/>
	<rect id="rect3394" x="448" y="352" class="st0" width="64" height="8"/>
	<rect id="rect3396" x="448" y="360" class="st0" width="64" height="8"/>
	<rect id="rect3398" x="448" y="368" class="st0" width="64" height="8"/>
	<rect id="rect3400" x="448" y="376" class="st0" width="64" height="8"/>
	<rect id="rect3402" x="256" y="384" class="st0" width="64" height="8"/>
	<rect id="rect3404" x="256" y="392" class="st0" width="64" height="8"/>
	<rect id="rect3406" x="320" y="384" class="st0" width="8" height="64"/>
	<rect id="rect3408" x="328" y="384" class="st0" width="8" height="64"/>
	<rect id="rect3410" x="256" y="400" class="st0" width="64" height="8"/>
	<rect id="rect3412" x="256" y="408" class="st0" width="64" height="8"/>
	<rect id="rect3414" x="256" y="416" class="st0" width="64" height="8"/>
	<rect id="rect3416" x="256" y="424" class="st0" width="64" height="8"/>
	<rect id="rect3418" x="256" y="432" class="st0" width="64" height="8"/>
	<rect id="rect3420" x="256" y="440" class="st0" width="64" height="8"/>
	<rect id="rect3422" x="336" y="384" class="st0" width="8" height="64"/>
	<rect id="rect3424" x="344" y="384" class="st0" width="8" height="64"/>
	<rect id="rect3426" x="352" y="384" class="st0" width="8" height="64"/>
	<rect id="rect3428" x="360" y="384" class="st0" width="8" height="64"/>
	<rect id="rect3430" x="368" y="384" class="st0" width="8" height="64"/>
	<rect id="rect3432" x="376" y="384" class="st0" width="8" height="64"/>
	<rect id="rect3434" x="256" y="448" class="st0" width="8" height="64"/>
	<rect id="rect3436" x="264" y="448" class="st0" width="8" height="64"/>
	<rect id="rect3438" x="272" y="448" class="st0" width="8" height="64"/>
	<rect id="rect3440" x="280" y="448" class="st0" width="8" height="64"/>
	<rect id="rect3442" x="288" y="448" class="st0" width="8" height="64"/>
	<rect id="rect3444" x="296" y="448" class="st0" width="8" height="64"/>
	<rect id="rect3446" x="304" y="448" class="st0" width="8" height="64"/>
	<rect id="rect3448" x="312" y="448" class="st0" width="8" height="64"/>
	<rect id="rect3450" x="320" y="448" class="st0" width="64" height="8"/>
	<rect id="rect3452" x="320" y="456" class="st0" width="64" height="8"/>
	<rect id="rect3454" x="320" y="464" class="st0" width="64" height="8"/>
	<rect id="rect3456" x="320" y="472" class="st0" width="64" height="8"/>
	<rect id="rect3458" x="320" y="480" class="st0" width="64" height="8"/>
	<rect id="rect3460" x="320" y="488" class="st0" width="64" height="8"/>
	<rect id="rect3462" x="320" y="496" class="st0" width="64" height="8"/>
	<rect id="rect3464" x="320" y="504" class="st0" width="64" height="8"/>
	<rect id="rect3466" x="384" y="384" class="st0" width="64" height="8"/>
	<rect id="rect3468" x="384" y="392" class="st0" width="64" height="8"/>
	<rect id="rect3470" x="448" y="384" class="st0" width="8" height="64"/>
	<rect id="rect3472" x="456" y="384" class="st0" width="8" height="64"/>
	<rect id="rect3474" x="384" y="400" class="st0" width="64" height="8"/>
	<rect id="rect3476" x="384" y="408" class="st0" width="64" height="8"/>
	<rect id="rect3478" x="384" y="416" class="st0" width="64" height="8"/>
	<rect id="rect3480" x="384" y="424" class="st0" width="64" height="8"/>
	<rect id="rect3482" x="384" y="432" class="st0" width="64" height="8"/>
	<rect id="rect3484" x="384" y="440" class="st0" width="64" height="8"/>
	<rect id="rect3486" x="464" y="384" class="st0" width="8" height="64"/>
	<rect id="rect3488" x="472" y="384" class="st0" width="8" height="64"/>
	<rect id="rect3490" x="480" y="384" class="st0" width="8" height="64"/>
	<rect id="rect3492" x="488" y="384" class="st0" width="8" height="64"/>
	<rect id="rect3494" x="496" y="384" class="st0" width="8" height="64"/>
	<rect id="rect3496" x="504" y="384" class="st0" width="8" height="64"/>
	<rect id="rect3498" x="384" y="448" class="st0" width="8" height="64"/>
	<rect id="rect3500" x="392" y="448" class="st0" width="8" height="64"/>
	<rect id="rect3502" x="400" y="448" class="st0" width="8" height="64"/>
	<rect id="rect3504" x="408" y="448" class="st0" width="8" height="64"/>
	<rect id="rect3506" x="416" y="448" class="st0" width="8" height="64"/>
	<rect id="rect3508" x="424" y="448" class="st0" width="8" height="64"/>
	<rect id="rect3510" x="432" y="448" class="st0" width="8" height="64"/>
	<rect id="rect3512" x="440" y="448" class="st0" width="8" height="64"/>
	<rect id="rect3514" x="448" y="448" class="st0" width="64" height="8"/>
	<rect id="rect3516" x="448" y="456" class="st0" width="64" height="8"/>
	<rect id="rect3518" x="448" y="464" class="st0" width="64" height="8"/>
	<rect id="rect3520" x="448" y="472" class="st0" width="64" height="8"/>
	<rect id="rect3522" x="448" y="480" class="st0" width="64" height="8"/>
	<rect id="rect3524" x="448" y="488" class="st0" width="64" height="8"/>
	<rect id="rect3526" x="448" y="496" class="st0" width="64" height="8"/>
	<rect id="rect3528" x="448" y="504" class="st0" width="64" height="8"/>
</g>
</svg>
